<?xml version="1.0" encoding="UTF-8"?>
<svg id="Layer_1" data-name="Layer 1" xmlns="http://www.w3.org/2000/svg" viewBox="0 0 120 120">
  <defs>
    <style>
      .cls-1 {
        fill: #fbb241;
      }
    </style>
  </defs>
  <path class="cls-1" d="M37.38,12.16c4.9-1.32,10.95-.42,14.37,3.27,2.84,3.07,3.31,8.84-1.09,13.57-4.76,5.11-12.52,5.09-18.99,7.06-5.29,1.61-10.97,3.19-16.56,11.12s-3.01,18.36-3.01,18.36c1.04,5.49,4.78,14.58,13.26,14.91,7.01.28,6.4-9.99,7.68-14.67,1.16-4.26,2.45-5.3,3.06-4.86s.48,2.41.96,5.9c.49,3.54,1.43,6.07,2.14,7.47.89,1.78,1.51,2.15,1.95,1.92.53-.27.14-1.59-.79-4.13-1.09-2.99-1.68-7.03-2.03-11.39-.3-3.7.05-5.69.7-6.78.46-.79,2.09-2.95,3.06-2.12.81.69.45,2.12.64,4.43.18,2.32.41,6.76,1.66,11.16.88,3.11,1.52,4.55,2.44,4.45,1.13-.12.7-1.41.17-3.7-.43-1.88-.94-3.87-1.42-7.65-.48-3.74-.46-9.78-.34-11.68.12-1.89,1.17-3.37,2.98-4.31,1.62-.84,2.4-.92,2.4,1.48,0,1.49-.25,8.39-.2,11.33.04,2.69.44,7.59.81,8.45.37.85,1.3.91,1.66.23.47-.88.06-5,.03-7.38-.06-4.33.43-11.97.49-13.68.06-1.71.32-2.99,1.46-4.33.57-.67,3.42-2.59,4.32-1.85.76.64-.16,4.7-.66,8.13-.48,3.31-1.78,14.26-1.47,15.4.35,1.27,1.67.91,1.98-.82.72-4.08,2.22-15.89,2.67-18.41.37-2.04.98-5.14,2.33-6.6,1.41-1.52,2.15-1.54,6.66-1.91,4.51-.37,10.41-.3,12.7-2.06,2.49-1.91,2.91-4.25,1.91-7.05-1.01-2.79-2.78-5.3-1.37-6.13,1.33-.78,2.63-.49,4.03,1.66.71,1.1,2.35,6.3,4.53,6.45,3.48.24,4.19-2.61,5.22-5.67,1.15-3.42,1.23-6.23,2.99-6.42s2.23,1.92,1.94,4.35c-.34,2.75-2,3.54-2.5,5.92-.41,1.94.13,3.24,2.33,3.98,2.27.76,4.01,1.59,5.34,4.12,1.43,2.72.29,4.08,3.45,5.44,3.49,1.51,7.61,3.46,7.23,6.54-.41,3.29-3,3.83-6.73,3.48-3.23-.3-7.98-2.33-9.7.96-1.95,3.74.11,6.53,1.45,9.24,1.81,3.66,3.18,8.27,2,13.54-1.18,5.31-4.79,6.43-6.82,10.17-1.43,2.62-1.95,6.84-3.58,7.58-1.29.58-2.64-.38-2.52-1.24.17-1.19.76-1.34.46-1.6-.38-.32-1.39-.78-.73-2.1.73-1.48,1.53-1.84,1.46-2.29-.11-.72-1.28-1.19-.14-2.24,1.19-1.1,2.33-2.15,3.7-3.29,1.37-1.14,4.22-5.64,2.37-7.64-2.41-2.59-8.06.17-10.51,3.57-2.33,3.23-3.29,6.13-3.2,12.08.09,5.95.74,10.39,1.92,12.44,1.45,2.53,3.68,2.23,4.2,3.12.57.99-.27,1.75-.86,1.95-.82.28-1.26-.4-1.72.21-.34.47-.84.9-1.97.7-1.23-.22-.5.66-1.74.78-1.24.12-2.55-.51-3.6-3.88-1.05-3.36-1.6-10.22-1.87-12.72-.27-2.53-.25-4.94-1.65-4.9-1.21.04-1.24,2.16-1.42,3.75-.19,1.72-.92,3.83-2.65,5.4-2,1.81-3.26,4.09-2.94,6.19.29,1.91,1.68,3.09,3.47,2.86s2.08-.49,2.93-.56c.86-.07,1.17.4.85,1.03-.29.57.4.61.34,1.45-.06.83-.75,1.23-1.75,1.16-1.01-.07-3.75-.14-5.81-.55-2.06-.41-2.76-1.57-3.4-3.66-.48-1.58-1.08-3.05-2.41-4.12-1.18-.95-3.51-1.04-4.21-2.84-.88-2.27-.45-4.3,1.33-7.64,1.91-3.58,3.2-6.98-.02-8.85-3.19-1.85-10.09-.26-13.82,7.27-2.27,4.61-2.87,6.82-4.25,8.78-1.53,2.16-2.94,3.57-5.86,2.98-1.36-.27-2.72-2.23-3.68-1.96s-1.59,3.29-1.07,5.08c.41,1.42.97,1.64,3.23,3.19,2.39,1.63,3.63,2.23,3.36,3.26-.26.98-1.48,1.22-2.27.88-.93-.4-.11.63-1.17.91-.91.25-1.34.02-2.44-.26-1.1-.27-.63.87-1.83,1.04-.69.1-1.57-.5-2.84-2.01-1.44-1.72-2.75-5.24-2.93-8.51-.14-2.56,1.12-3.96,2.52-5.44,1.63-1.74,3.57-3.92,2.78-5.76s-3.65-1.42-8.44-1.76c-6.02-.43-11.77-2.69-15.91-7.31-5.19-5.8-7.71-14.81-6.72-22.91,1.35-11.13,12.43-36.26,35.7-42.52Z"/>
</svg>