<?xml version="1.0" encoding="UTF-8"?>
<svg id="Layer_1" data-name="Layer 1" xmlns="http://www.w3.org/2000/svg" viewBox="0 0 120 120">
  <defs>
    <style>
      .cls-1 {
        fill: #fbb241;
      }
    </style>
  </defs>
  <path class="cls-1" d="M26.89,28.63c1.45.4,3.59.18,4.75,1.72,1.12,1.49-.42,4.6.84,5.97,1.75,1.91,7.86,1.64,14.55,3.53,6.69,1.89,10.39,5.05,14.22,7.95,3.83,2.9,5.63,4.86,7.44,4.37s1.2-2.31.76-3.83c-.41-1.41-1.05-3.58-.25-4.88.95-1.56,3.07-1.89,3.11-3.05.03-.98-.68-1.07-1.93-1.02-1.23.04-2.76-.53-2.41-1.77.27-.96,1.43-.54,2.24-.18.71.31,1.53.9,2.05.46s.27-1.35-.54-2.35-2.79-3.48-3.25-4.07c-.32-.41-.53-1.29-.19-1.62.51-.51,1.37-.24,1.91.4.62.72,1.67,2.59,2.04,3.2.4.66.84,1.61,1.23,1.37.32-.2.06-.99-.23-2.25-.23-1-.75-5.36,1.5-5.38,1.85-.02.98,4.02.72,5.03s-.82,2.97-.47,3.31c.3.29.7.42,1.3-.48.47-.68,2.11-3.35,3.28-2.81,1.05.48-.17,2.46-.6,3.03-.53.69-1.3,1.63-2.21,2.36-.78.62-1.05.8-.81,1.26.26.51,1.88-.37,2.83-.93.74-.44,1.36-.46,1.77-.28.61.27.81,1.89-1.18,2.2-1.9.3-3.35.9-4.24,1.99s-1.83,4.26-.94,6.49c1.11,2.8,4.16,2.72,5.85,2.51,1.93-.24,5.21-1.74,5.48-4.07.39-3.27-.63-5.75-.7-7.34-.06-1.44.17-4.23,4.57-7.85,4.61-3.8,10.77-7.56,11.79-8.2,1.25-.79,2.85-.83,3.64-.53,1.3.48,1.86,2.09,2.23,3.32s1.68,7.51,1.88,10.09c.14,1.75.66,8.87-2.45,12.62-3.12,3.76-8.12,3.04-10.07,5.4-1.78,2.15-2.5,4.05-2.34,7.89.13,3.12.76,5.43,2.5,6.5,1.45.9,4.75,1.77,7.04-1.18,2.44-3.14,3.98-4.12,5.1-4.35,1.12-.22,1.86-.04,1.93.42.13.79-.33,1.12-1.01,1.43-.88.4-2.79,1.49-3.17,2.33-.35.77.41.85.75.6.24-.17,2.11-1.51,3.62-1.81,1.42-.28,2.66-.15,4.07.38,1.21.46,1.6.94,1.57,1.5-.02.53-.23,1.06-1.58,1-1.22-.05-2.69-.58-3.87-.36-1,.19-3.01,1.09-2.79,1.66.19.5,1.03-.04,1.69-.26,1.2-.39,2.56-.43,3.94-.25,1.38.18,4.21,1.12,4.37,2.38.09.67-.76,1.7-2.85.82-2.01-.84-3.1-.93-4.53-.86-1.34.07-1.67.52-1.62.82s1.09.25,1.82.31c1.31.1,2.75.74,3.09,1.57.41.99.11,1.86-.47,2.22-.73.45-2.16.19-3.4-.84-1.23-1.04-3.95-2.35-4.21-2.02-.18.23.38.69,1.14,1.12,1.05.61,2.37,1.4,2.76,2.22s-.13,1.31-.79,1.4c-.43.06-1.19-.08-1.88-.9-.73-.91-2.31-3.17-3.95-3.37-1.29-.16-2.95.78-4.71,1.85-1.21.74-3.77,1.35-5.05-.01-.72-.77-1.79-3.27-4.17-3.2-1.49.05-3.14,1.31-4.63,2.39-1.64,1.19-5.64,4.64-12.15,4.68-6.52.04-15.32-3.56-21.36-9.5-4.92-4.84-6.27-7.65-6.81-7.32-.42.26-.14.57,0,1.18.2.84.08,1.98-1.01,2.19-1.09.21-3.92-.02-4.24,1.03-.35,1.12.92,1.51,2.11,1.8,1.61.4,3.16,1.33,3.82,2.52s.46,1.39.24,1.48c-.24.1-.69-.35-.97-.67-.35-.4-1.11-1.08-1.77-1.32-.54-.2-.87.11-.22.59.68.51,2.07,1.57,2.92,2.64s1.45,2.19,1.09,2.7c-.32.44-1.04.47-1.71-.29-.67-.76-2.79-3.6-3.61-4.28-.5-.41-1.28-.78-1.47-.52-.17.23.2.54.84,1.11,1.18,1.06,3.89,4.79,4.07,5.58s.27,1.59-.7,1.86c-.78.21-1.57-.12-2.57-1.91-1.08-1.93-2.62-4.45-3.02-5.02s-1.08-.59-1.53.22c-.69,1.24-1.87,3.22-3.79,3.99-.87.35-1.77-.41-.73-1.11,1.19-.8,1.76-1.1,2.06-3.01.25-1.61-.18-1.72-.99-2.68-.74-.88-.64-1.77.53-2.65,1.34-1.02,3.32-.91,3.36-3.21.04-2.31-.91-2.89-2.64-2.78-1.71.11-3.91.84-4.71-.11-1.23-1.47-.12-3.43-1.65-4.43-1.54-1-7-.56-11.48,6.1-4.46,6.62-4.33,12.97-2.69,16.41,1.81,3.79,5.33,7.79,19.17,5.11,14.03-2.72,20.55-3.65,25.1-2.61,4.26.97,9.22,3.3,11.47,9.19,2.08,5.43-2.3,13.57-9.91,14.24-7.25.64-15.04-.85-20.58-3.81-3.76-2.01-4.9-3.53-3.87-4.51s2.73,1.22,5.11,2.41c1.78.89,6.96,2.78,11.17,3.34,4.21.56,9.18-.07,11.19-1.54,1.7-1.24,4.93-4.07,4-8.42-.96-4.48-6.39-7.65-13.69-7.16-4.74.32-13.16,2.79-19.89,4.36-6.73,1.57-15.28,1.77-19.6-.02-6.49-2.69-10.07-8.96-11.38-16.8-1.37-8.19.42-15,5.2-22.38,4.95-7.62,11.51-7.93,14.55-10.21,3.32-2.48,3.41-5.56,3-7.82-.52-2.85-2.94-5.74-4.01-6.57-1.04-.8-1.87-1.31-3.87-1.33-1.85-.02-3.54.27-4.12.08-.48-.15-.58-1.15.29-1.26.64-.08,2.59-.08,3.71-.07,1.2,0,2.4-.16,2.62-1.28.27-1.37-.54-3.21-1.15-4.71-.5-1.23-2.41-5.32-1.37-5.89,1.04-.57,1.85,1.23,2.21,2.19.27.71.96,2.91,1.47,5.11.3,1.29.6,2.21,1.14,2.03.32-.11.17-1.84.33-3.49.14-1.51,1.09-5.57,2.25-6.16.92-.47,1.38.2,1.37.8-.01.67-.76,2.36-1.18,3.97s-.82,3.36-.89,4.76c-.05,1,.35,1.52,1.16.57.73-.86,2.07-2.78,3.1-3.5.73-.5,1.67-.38,1.67.39,0,.55-1.19,1.41-1.76,1.9-.73.61-2.23,2.01-2.31,2.65-.07.52.21,1.24,1.05.45s1.56-1.46,2.19-1.65c.53-.16,1.08.14,1.07.68-.01.49-.94.79-1.77,1.24-.3.16-2.1.97-2.14,2.02-.04.91.53,1.21.85,1.3Z"/>
</svg>