<?xml version="1.0" encoding="UTF-8"?>
<svg id="Layer_1" data-name="Layer 1" xmlns="http://www.w3.org/2000/svg" viewBox="0 0 120 120">
  <defs>
    <style>
      .cls-1 {
        fill: #fbb241;
      }
    </style>
  </defs>
  <path class="cls-1" d="M106.85,62.92c-.49,5.05-3.24,6.79-10,11.5-3.69,2.57-7.43,4.28-6.92,7.62.45,2.92,2.17,2.05,3.1,4.44.84,2.15.32,4.55-4.29,6.57-3.01,1.32-13.16,1.93-16.16,3.14-4.17,1.68-4.86,3.5-8.49,6.3-1.69,1.3-3.54,1.99-5.79,4.62-1.11,1.3-2.86,1.61-3.48.62-.32-.52.14-1.38,1.13-2.34,1.59-1.55,3.53-2.2,4.5-3.86.92-1.57.37-2.83-1-2.51-1.26.3-5.98,3.82-10.15,7-4.06,3.1-5.55,3.5-6.68,2.4-1.29-1.26-.21-3.53,3.89-5.89,4.09-2.36,9.41-5.15,9.68-6.09s-.72-1.18-2.26-1.02c-1.53.16-6.31,1.72-8.5,2.09-2.45.42-4.3-.38-4.34-1.95s1.49-2.76,4.46-2.78,9.2-.08,11.21-.06c2.01.02,3.38-.5,3.43-1.54.05-1.04-1.34-1.71-2.87-2.45-1.29-.63-3.49-3.27-1.3-7.42,2.31-4.38,5.74-1.48,7.64-3.94,1.79-2.32.73-3.99.04-4.62-.86-.79-3.01-1.28-4.54-.07-1.55,1.23-3.84,1.25-5.4.4s-2.4-2.62-3.51-3.64-2.52-.97-3.26.92c-.74,1.89-2.17,7.42-3.59,9.62-1.35,2.1-2.78,3.65-7.93,3.79-5.15.13-10.5-3.11-12.36-5.21-1.86-2.11-3.21-6.25-3.35-7.5s-1.85-1.39-2.76-1.6-5.54-1.37-4.43-3.67,4.09.14,5.63,1.16c1.84,1.21,2.47,1.29,2.5-.04s-1.11-6.59-1.33-7.78c-.24-1.25.09-3.31,1.55-3.53,1.6-.25,2.45,1.06,2.51,2.74.06,1.81-.02,7.55.39,8.66.56,1.48,1.73,1.89,2.48.76s1.82-4.29,3.12-4.75,2.1.41,1.96,1.57-.8,2.72-1.94,4.04c-1.02,1.18-2.64,2.06-2.1,4.07.61,2.24,2.89,3.11,5.73,2.57s6.12-1.27,7.49-6.67c1.38-5.4-.4-7.09-4.03-8.97-3.64-1.88-6.2-2.1-11.16-5.64-5.38-3.84-9.73-10.67-11-14.11-1.27-3.44-1.5-6.71.93-9.31,2.43-2.61,7.09-2.3,9.51-3.68,2.69-1.54,4.11-4.09,5.75-5.61s2.85-1.48,4-1.24c1.42.3,2.39,1.97,3.47,3.51s2.85,3.92,4.95,4.24c2.12.33,4.03-1.24,4.78-1.77s2.35-.51,2.81.39.67,2.12,1.36,2.18c1.59.13,1.68-.74,2.23-1.44s1.66-1.01,2.5-.85c1.45.28,2.23,1.11,2.64,1.91s.9,1.25,1.4.8.96-2.01,2.07-1.86.85,1.32,2.2,1.51,6.28-.89,8.72-.84c3.16.06,8.94.74,15.38,7.28,6.44,6.54,8.77,8.65,13.14,15.05,4.02,5.89,5.12,7.53,4.61,12.81Z"/>
  <path class="cls-1" d="M99.99,43.92c-4.64-5.65-10.33-11.6-13.84-14.08-4.35-3.07-8.71-4.43-11.88-5.65s-5.39-2.87-5.19-4.43c.2-1.56,2.82-.69,4.84.87,2.07,1.6,3.59,2.17,2.55.33-1.19-2.1-3.02-4.24-4.96-6.6-1.05-1.27-.63-2.65,0-3.14s2.94-.24,4.92,3.06c2.44,4.08,3.98,7.59,5.58,8.17,1.22.44,1.77-.14,1.18-1.39-.63-1.37-1.56-3.23-.65-3.91s1.76.05,2.1,1.27c.34,1.22.04,4.21,2.03,5.27,1.99,1.07,2.98-1.44,7.92,1.5,5.21,3.1,8.86,6.64,11.28,12.63,2.42,5.99,1.97,10.58.68,11.57-1.43,1.1-5.27-3.9-6.57-5.49Z"/>
  <path class="cls-1" d="M64.4,24.5c1.39-1.11,1.49-3.12.11-5.93-1.16-2.36-2.62-4.6-4.4-5.45-1.28-.61-2.52-.49-3.79.21-1.6.89-1.55,2.69-3.77,1.99-2.35-.74-4.73-2.66-5.8-1.66s-.48,2.81,1.46,2.99,3.37,0,3.5.62c.11.53-1.53,1.85-2.77,2.06-1.32.22-2.95-.14-3.07,1.47-.07,1,.71,2.01,2.41,1.82,1.53-.17,2.44-1.06,3.78-2.31,1.03-.96,1.37-1.22,1.71-.91.29.27-.43,2.15-.77,2.74-.55.95-1.12,1.87-.51,2.38.61.52,2.01.7,2.2-1.05s.22-4.05,1.46-3.32,1.55,2.51,3.3,3.78c1.89,1.36,3.72,1.56,4.94.59Z"/>
</svg>