<?xml version="1.0" encoding="UTF-8"?>
<svg id="Layer_1" data-name="Layer 1" xmlns="http://www.w3.org/2000/svg" viewBox="0 0 120 120">
  <defs>
    <style>
      .cls-1 {
        fill: #fbb241;
      }
    </style>
  </defs>
  <path class="cls-1" d="M16.21,71.02s.44-1.04,1.66-2.45c1.51-1.74,3.42-1.99,4.24-.91.79,1.04-.47,2.5-1.35,2.9-.88.4-2.24.3-2.24.3,0,0,.78,1.47,2.36,1.68,1.96.27,4.06-.37,5.73-1.08,2.01-.85,3.58-.16,5.92,1.12,2.21,1.2,9.95,8.48,15.91,9.3,7.31,1.01,12.38-1.29,18.57-2.11,7.12-.95,9.62.89,15.3,5.1,5.45,4.03,8.49,6.09,10.9,6.72,2.4.63,3.22-.26,3.22-.78,0-.77-.22-.87-.99-1.35-1-.62-1.69-1.04-1.28-1.55.34-.43.73.06,2.9.58,2.37.56,3.96-1.27,4.13-2.19.19-1.04-.64-1.24-2.1-1.68s-2.09-.78-1.89-1.16,2.62.15,4.79.05,3.73-2.35,3.76-3.95c.03-1.43-1.73-1.91-3.36-1.96-1-.04-2.24-.26-2.21-.69.04-.65,1.8-.36,3.97-.44,1.47-.06,3.14-.69,3.12-2.71-.01-1.82-1.5-2.59-5.75-2.69-4.72-.11-11.35-.2-21.14-1.26-8.77-.95-9.94-2.52-9.94-4.3,0-1.95,2.35-2.3,4.46-2.69,2.58-.49,8-1.95,11.02-4.87,2.57-2.49,3.55-6.08,4.98-15.82,1.4-9.48,4.86-10.97,7.13-12.12,2.11-1.07,5.73-2.21,7.37-3.2,1.52-.92,1.8-2.31,1.1-3.37s-2.53-.77-3.99-.43-1.96.43-3.48,1.18c-1.18.59-2.38,1.72-2.95,1.3-.48-.36.33-.97,1.47-1.73,1.54-1.03,3.8-1.74,6.15-2.09,2.34-.35,3.06-1.53,3.06-2.21s-.11-1.92-1.95-2.15c-2.2-.27-5.21.76-6.44,1.39-1.63.84-3.92,2.37-4.12,2.09s.03-1.02,1.53-1.99c1.67-1.07,5.36-2.51,6.54-2.88,2.22-.69,1.6-2.1,1.31-2.62s-.78-1-2.85-.64c-1.66.28-3.31,1.29-5.42,2.83-1.7,1.24-3.72,3.05-4.14,2.85-.5-.23-.56-.64.2-1.61,1.33-1.71,5.26-4.12,6.96-5.04s1.35-1.99.93-2.44c-.45-.48-1.44-1.03-3.5-.17-2.34.98-6.49,3.7-7.73,4.73-1.14.95-2.25,1-2.5.61-.51-.81,1.89-2.41,3.67-3.81,1.61-1.26,3.49-2.29,4.28-3.14.53-.58.3-2.12-1.37-2.24-1.89-.13-6.83,5-8.15,6.1-1.08.9-1.78.79-1.85.1-.08-.83,3.8-5.39,4.52-6.26.93-1.13,1.1-2.15.58-2.55s-1.35-.53-2.39.66c-.92,1.05-4.81,7.11-8.68,11.35s-14.66,12.04-22.05,15.59c-7.39,3.55-5.34,10.09-5.57,15.93-.23,5.85-2.64,10.37-6.16,12.09-3.67,1.79-7.57-.17-12.16-1.32-3.4-.85-5.32-.92-7.6,0-4.44,1.79-4.61,5.81-4.61,5.81,0,0-2.02.54-2.85,3.05-.98,3,1,5.25,1,5.25Z"/>
  <path class="cls-1" d="M16,54.13c-.26-4.21,1.37-9.01,2.82-10.61,1.57-1.73,2.52-1.78,3.01-1.67.72.16.66.67.38,1.26-.37.76-2.61,3.41-2.1,3.93.26.26.8.2,1.55-1.02.99-1.63,2.29-3.92,3.76-3.97.99-.03,1.41.93.99,1.75-.42.82-2.26,2.86-1.86,3.48.42.64,1.09.57,1.71-.29s1.77-3.17,3.35-4.14c1.2-.74,2.11.07,2.28.55.22.63-.28,1.22-.94,1.92-.81.85-2.15,1.68-2.49,2.52-.29.72.09,1.17.93.72,1.23-.66,3.47-3.59,4.17-4.05.97-.63,1.78-.14,2.08.27.24.33.4,1.39-.63,2.38-1.1,1.05-3.68,2.29-3.32,3.12.23.52,2.44-.53,3.72-1.74,1.08-1.01,1.92-1.13,2.59-.83,1.22.54,2.26,2.82.38,3.5s-4.97,1.18-4.64,2.46c.07.26.28.64,2.12.35,1.64-.26,2.93.09,3.6.86.93,1.07.64,5.5-1.95,5.33-2.59-.16-3.16-.77-5.95-1.36-2.2-.47-4.8-1.17-7.21-.59-1.35.33-3.11.86-4.48,2.36-1.13,1.24-1.54,2.35-1.72,2.28-.98-.35-1.92-4.83-2.16-8.76Z"/>
  <path class="cls-1" d="M37.95,78.12s4.17,3.54,8.21,4.66c3.41.95,7.21.88,10.11.35,2.44-.44,3.57-.61,4.07-.35s.61.71-.2,1.24c-.9.59-1.78,1.23-1.35,2.83.42,1.58,3.62,3.58.99,6.49-2.3,2.56-10.41,7.16-12.7,8.72-2.36,1.62-4.13,2.69-4.9,6.11-.69,3.05-.73,5.96-1.86,6.31-1.32.4-1.55-.49-1.41-1.8.18-1.63.34-2.65.27-3.32-.04-.34-.85-.79-1.09.68-.28,1.71-.59,4.24-1.31,5.31-.27.4-.96.79-1.88.4-1.27-.53-.45-2.51-.28-4.22.11-1.09-.65-1.03-.91-.18-.33,1.06-.6,3.77-1.19,4.66-.92,1.37-2.69,1.57-3.51.9-.64-.53-.53-1.71-.26-3.32.38-2.3-.26-2.47-.67-1.86-.31.45-.44,1.47-.68,2.51-.29,1.23-.57,3.2-2.63,3.14-1.55-.05-2.6-.58-2.38-2.43.23-1.93.81-3.55.2-3.65s-.77.92-.92,1.55-.76,2.97-2.02,3.68c-.51.28-1.8.4-2.55-.3-.79-.74-.45-1.51.01-3.11s.77-2.44.43-2.58c-.51-.21-.73.65-1.08,1.42-.33.72-.56,1.48-1.09,2.29-.72,1.1-1.2,1.27-2.07.8-.96-.52-.66-1.99.51-4.08,1.24-2.24,3.78-4.95,5.72-10.18,2.31-6.21,1.49-9.64,2.61-12.52,1.2-3.07,3.22-5.13,6.1-5.74,3.8-.81,4.76.09,7.35-1.84,2.07-1.54,1.68-2.99,2.39-2.56Z"/>
</svg>